<svg width="40" height="9" viewBox="0 0 40 9" fill="none" xmlns="http://www.w3.org/2000/svg">
<path fill-rule="evenodd" clip-rule="evenodd" d="M4.40862 0.0944721L0 8.73047H3.37125L3.95472 7.50358H6.54793V8.73047H9.85419V0.0944721H4.40862ZM6.48315 5.00249H5.12165L6.48315 2.92598V5.00249ZM19.6434 0H14.3922C12.6415 0 12.0583 1.65178 12.0583 1.65178L10.8266 6.79574C10.8266 6.79574 10.3727 8.73062 12.6418 8.73062H17.5688L18.0875 6.18238H15.4295C15.4295 6.18238 14.2626 6.37116 14.4572 5.42722C14.5219 5.28559 14.9758 3.39787 14.9758 3.39787C14.9758 3.39787 15.1054 2.73719 15.6889 2.73719H18.9951L19.6434 0ZM21.1994 0.0473138L18.7358 8.73047H21.9775L23.0794 5.04965L23.3388 8.73047H25.0894L27.0339 5.04965L26.0615 8.73047H28.9787L31.3777 0H27.2287L25.2187 3.63382V0.0473138H21.1994ZM30.5997 8.73047L32.8684 0H39.5461L39.0274 2.5014H35.5268L35.3322 3.35071H38.7033L38.1848 5.23844L34.7488 5.19128L34.5542 6.04059H37.99L37.277 8.73047H30.5997ZM38.9626 8.58915C38.5087 8.58915 38.2494 8.35289 38.2494 8.02278C38.2494 7.69237 38.5087 7.45642 38.9626 7.45642C39.4165 7.45642 39.7407 7.69237 39.7407 8.02278C39.7407 8.35305 39.4165 8.58915 38.9626 8.58915ZM38.9626 8.77794C39.5461 8.77794 40 8.40036 40 8.02278C40 7.59805 39.5461 7.26763 38.9626 7.26763C38.3792 7.26763 37.9253 7.59805 37.9253 8.02278C37.9255 8.40036 38.3794 8.77794 38.9626 8.77794ZM39.222 8.06994C39.4165 8.06994 39.5461 8.02278 39.5461 7.834C39.5461 7.64521 39.3515 7.59805 39.0922 7.59805H38.5735V8.40021H38.7681V8.06979H38.9626L39.222 8.40021H39.4813L39.222 8.06994ZM38.7681 7.97547V7.73952H39.0274C39.1572 7.73952 39.2868 7.73953 39.2868 7.834C39.2868 7.92816 39.222 7.97532 39.0922 7.97532L38.7681 7.97547Z" fill="#4482F8"/>
</svg>
